<?xml version="1.0" encoding="UTF-8"?>
<!-- Created with Inkscape (http://www.inkscape.org/) -->
<svg width="100" height="25" version="1.1" viewBox="0 0 26.458 6.6146" xmlns="http://www.w3.org/2000/svg">
 <g transform="matrix(.23612 0 0 .43729 -27.011 -95.782)" fill="#008080" stroke-width="7.1339" aria-label="mintea">
  <g transform="matrix(.5 0 0 .47741 60.605 114.76)" fill="#0f0">
   <g transform="matrix(.25994 0 0 .11351 -11.719 159.51)" fill="#0f0">
    <path d="m702.61 708.25q0.28536-1.7121 1.4268-2.5682 1.4268-0.85607 2.8536-0.85607 1.4268 0 2.5682 0.85607 1.1414 0.85608 0.85607 2.5682-0.85607 6.8486-2.2829 15.98-1.4268 8.8461-3.7096 18.548-2.2828 9.7021-5.7071 19.119-3.1389 9.4168-7.99 16.836-4.8511 7.4193-11.414 11.985-6.2779 4.5657-14.839 4.5657-12.27 0-19.69-5.1364-7.4193-5.1364-11.414-13.412-3.7096-8.5607-5.1364-19.119-1.1414-10.844-1.1414-21.972 0.28535-11.414 0.85607-21.972 0.57071-10.844 0.28535-19.119-0.28535-8.5607-2.2828-13.697-1.9975-5.1364-6.8486-5.1364-5.1364 0-9.7021 4.5657-4.2804 4.2804-7.99 11.414-3.4243 6.8486-6.2779 15.695-2.8536 8.8461-4.8511 17.407t-3.4243 15.98q-1.4268 7.4193-1.9975 11.985 0 9.9875-0.28536 18.548 0 8.5607 0 14.839 0 3.4243-2.8536 5.7071-2.8536 2.2828-7.1339 3.7096-4.2804 1.1414-9.4168 1.1414-5.1364 0.28535-9.4168-0.85608-4.2804-1.1414-7.1339-3.4243-2.8536-2.5682-2.8536-6.2778 0.28536-3.995 1.1414-13.982 0.85607-9.9875 1.4268-22.829 0.57071-12.841 0.57071-26.538 0-13.982-1.4268-25.397-1.4268-11.414-4.8511-18.834-3.1389-7.4193-8.8461-7.4193-5.9925 0-10.844 4.8511-4.5657 4.5657-8.2754 12.27-3.7096 7.4193-6.5632 16.551-2.8536 9.1314-4.8511 17.977-1.9975 8.5607-3.4243 16.265-1.1414 7.4193-1.7122 11.414 0.28536 13.126 0.28536 22.829 0 9.4168 0 13.412 0 3.1389-2.8536 5.1364t-7.1339 3.1389q-4.2804 0.85607-9.4168 0.85607-5.1364 0-9.4168-0.85607-4.2804-1.1414-7.1339-3.1389t-2.8536-5.1364q0-8.5607-0.28536-23.114 0-14.839-0.28535-31.389 0-16.551 0-33.101 0-16.551 0-29.106 0-5.1364 5.9925-7.99 6.2779-2.8536 13.412-2.8536 7.4193-0.28535 13.412 2.2829 6.2778 2.5682 6.2778 8.5607v42.233q1.9975-7.1339 4.8511-15.695t7.4193-15.98q4.5657-7.4193 11.129-12.27 6.5632-5.1364 15.695-5.1364 11.129 0 19.119 4.8511 7.99 4.8511 13.126 12.841 5.4218 7.99 8.5607 18.548 3.1389 10.558 4.5657 21.972 2.5682-10.558 6.2779-20.831 3.7096-10.558 9.4168-18.834 5.7071-8.2754 13.412-13.412 7.7046-5.1364 18.263-5.1364 11.985 0 19.119 5.1364 7.1339 5.1364 10.844 13.697t4.8511 19.404q1.1414 10.558 0.85607 21.972t-1.1414 22.258q-0.57071 10.558-0.57071 19.119t1.7121 13.697q1.7121 5.1364 6.2778 5.1364 4.8511 0 8.8461-4.2804 4.2804-4.5657 7.4193-11.414 3.4243-6.8486 5.7071-15.409 2.5682-8.5607 4.2804-16.836t2.8536-15.409q1.1414-7.4193 1.7121-11.985z"/>
    <path d="m723.6 652.03q-8.2754 0-14.268-5.7071-5.7071-5.9925-5.7071-14.268t5.7071-13.982q5.9925-5.9925 14.268-5.9925t13.982 5.9925q5.7071 5.7071 5.7071 13.982t-5.7071 14.268q-5.7071 5.7071-13.982 5.7071zm60.496 58.784q0.28536-1.4268 1.4268-2.2829 1.4268-0.85607 2.8536-0.85607 1.7121 0 2.5682 0.85607 1.1414 0.85608 0.85607 2.5682-1.7121 11.129-3.995 22.543-2.2828 11.129-5.4218 21.116-3.1389 9.9875-7.1339 18.548-3.995 8.2754-9.1314 13.697-8.2754 9.4168-20.546 9.4168-13.412 0-21.972-6.5632-8.2754-6.8486-13.126-17.692-4.8511-11.129-6.5632-24.541-1.7121-13.697-1.9975-27.394-0.28536-13.697 0.28536-25.967 0.57071-12.556 0.57071-21.116 0-6.2779 5.9925-9.4168 6.2778-3.1389 13.412-2.8536 7.4193 0 13.412 3.1389 6.2779 3.1389 6.2779 9.4168-0.28536 3.995-1.7121 13.982-1.1414 9.9875-2.2829 22.829-1.1414 12.841-1.7121 26.824-0.57072 13.697 0.28536 25.111 1.1414 11.414 3.995 18.834t8.5607 7.4193q3.1389 0 5.9925-1.4268 2.8536-1.7121 5.1364-4.2804 2.5682-2.5682 4.5657-5.7071 2.2828-3.1389 3.7096-5.9925 5.7071-11.414 9.4168-27.394 3.995-15.98 6.2778-32.816z"/>
    <path d="m940.51 712.53q0.28535-2.2828 1.7121-3.7096 1.4268-1.4268 2.8536-1.4268 1.7121 0 2.5682 1.4268 0.85607 1.4268 0.57071 4.2804-1.1414 6.8486-2.5682 13.697-1.1414 6.5632-2.5682 13.126-1.7121 7.99-4.8511 18.263-2.8536 10.273-7.7046 19.404-4.8511 9.1314-11.985 15.409-7.1339 6.2779-17.121 6.2779-12.27 0-19.69-4.8511-7.1339-4.8511-11.129-12.841-3.995-7.99-5.1364-18.263-1.1414-10.273-1.1414-20.831t0.57071-20.831q0.57072-10.273 0.28536-18.263-0.28536-7.99-2.2829-12.841-1.7121-4.8511-6.5632-4.8511t-9.1314 3.995q-4.2804 3.995-7.7046 10.273-3.4243 6.2779-6.2778 14.268-2.8536 7.99-5.1364 16.265-1.9975 8.2754-3.4243 15.695-1.4268 7.4193-2.2829 12.841 0 8.2754 0 15.695 0.28536 7.1339 0.28536 12.556 0 4.2804-2.8536 7.1339-2.8536 2.5682-7.1339 3.7096-4.2804 1.4268-9.4168 1.1414-5.1364 0-9.4168-1.4268-4.2804-1.1414-7.4193-3.4243-2.8536-2.2829-2.8536-5.7071 0-9.1314 0-21.972 0-13.126-0.28536-27.109 0-14.268 0-28.536t0-25.967q0-7.99 5.9925-11.7 6.2778-3.7096 13.412-3.7096 7.4193 0 13.412 3.7096 6.2778 3.4243 6.2778 9.9875v38.238q2.5682-9.4168 6.2778-17.977 3.995-8.8461 9.4168-15.409 5.4218-6.8486 12.556-10.844 7.1339-3.995 16.265-3.995 15.98 0 23.685 8.5607 7.7046 8.2754 10.273 21.116 2.5682 12.556 1.7122 27.394-0.57072 14.839-1.4268 27.68-0.57071 12.556 0.57071 21.116 1.1414 8.2754 7.4193 8.2754 5.4218 0 9.9875-5.7071 4.5657-5.9925 7.7046-13.982 3.4243-7.99 5.4218-15.695 2.2829-7.99 3.1389-12.27 1.4268-6.5632 2.5682-13.412 1.4268-7.1339 2.5682-13.982z"/>
    <path d="m1031.5 710.25q0.2854-1.7122 1.4268-2.5682 1.4268-0.85607 2.8536-0.57071 1.4268 0 2.5682 1.1414 1.1414 0.85607 0.8561 2.5682-1.4268 10.273-4.2804 25.111-2.8536 14.839-8.2753 28.821-5.4218 13.697-13.982 23.399-8.5607 9.7021-21.402 9.7021-14.839 0-24.255-7.99-9.4168-8.2754-15.124-21.402t-8.2754-29.392q-2.5682-16.551-3.4243-33.387-1.9975-31.104-1.4268-61.637 0.28536-30.533 0.85607-61.637h-35.67q-2.5682 0-3.995-1.1414-1.4268-1.1414-1.4268-2.5682 0-1.7121 1.4268-2.8536 1.4268-1.1414 4.5657-1.1414h35.384q0.28536-10.273 0.57071-20.546 0-10.273 0-20.546 0-4.5657 2.8536-7.4193 3.1389-3.1389 7.4193-4.5657 4.2804-1.4268 9.4168-1.1414 5.1364 0 9.4168 1.4268 4.5657 1.4268 7.4193 4.5657 2.8536 2.8536 2.8536 7.1339l-1.1414 41.091h34.814q2.5683 0 3.7097 1.1414t1.1414 2.8536q0 1.4268-1.1414 2.5682-1.1414 1.1414-3.7097 1.1414h-35.099q-0.57071 19.975-1.1414 43.089-0.28536 22.829-0.28536 45.657 0.28536 22.543 1.1414 43.374t3.1389 36.811q2.5682 15.98 6.2779 25.682 3.995 9.4168 9.9875 9.4168 5.4218 0 9.9874-4.2804 4.5658-4.5657 7.99-11.414 3.7097-6.8486 6.2779-15.409 2.8536-8.8461 4.5657-17.121 1.9975-8.5607 3.1389-15.98 1.4268-7.4193 1.9975-11.985z"/>
    <path d="m1146.9 711.39q0.2854-1.7121 1.4268-2.5682 1.4268-1.1414 2.8536-1.1414t2.5682 0.85607q1.1414 0.85608 0.8561 2.8536-2.2829 13.982-6.8486 29.677-4.2803 15.409-12.27 28.536-7.99 12.841-19.975 21.402t-29.106 8.5607q-20.546 0-33.958-9.7021-13.412-9.9875-19.975-24.826-6.2779-14.839-5.7071-32.245 0.5707-17.407 8.2753-32.245 7.7046-14.839 22.258-24.541 14.838-9.9875 36.526-9.9875 13.126 0 20.831 5.4218 7.7046 5.1364 10.273 13.412 2.8535 7.99 0.2853 17.407-2.5682 9.1314-9.9875 17.407-7.4193 7.99-19.69 13.412-12.27 5.4218-29.106 5.4218-0.2854 5.9925 0 15.124 0.5707 8.8461 2.5682 17.407 2.2828 8.2754 6.8486 14.553 4.5657 5.9925 12.841 6.2779 14.268 0 24.541-8.2754 10.273-8.2754 17.121-20.26 6.8486-12.27 10.844-26.253 3.995-13.982 5.7071-25.682zm-45.657-36.24q-9.4168 0-15.98 5.9925-6.2778 5.7071-10.273 14.268-3.7097 8.5607-5.7072 18.263t-2.5682 17.121q14.553 0 24.826-4.2804 10.273-4.2804 16.551-10.273 6.2779-6.2778 8.8461-13.412 2.5682-7.1339 1.4267-13.126-0.856-6.2778-5.4217-10.273-4.2804-4.2804-11.7-4.2804z"/>
    <path d="m1313.3 710.82q0.2853-1.4268 1.4268-2.2829 1.4267-0.85607 2.8535-0.85607 1.7122 0 2.5682 0.85607 1.1415 0.85608 0.8561 2.5682-1.7121 11.129-3.995 22.258-2.2828 11.129-5.4218 21.402-3.1389 9.9875-7.1339 18.263-3.995 8.2754-9.1314 13.982-4.2804 4.8511-9.7022 7.1339-5.4217 2.2829-11.129 2.2829-11.7 0-19.404-5.1364-7.7046-5.1364-12.556-13.412-4.851-8.5607-7.4192-19.404-2.5683-11.129-3.4243-23.114-2.8536 10.844-6.8486 22.258-3.7096 11.129-8.8461 20.26-5.1364 9.1314-11.7 14.839t-15.124 5.7071q-11.985 0-21.116-5.7071-8.8461-5.9925-14.553-15.409-5.7071-9.7021-8.2753-21.972-2.5682-12.556-1.7121-25.397 0.5707-12.841 4.5657-25.111t11.129-21.972q7.4193-9.7021 17.978-15.409 10.558-5.9925 24.541-5.9925 11.985 0 18.834 3.995 7.134 3.7096 11.414 10.558v-2.8536q0-4.5657 2.8536-7.7046 2.8536-3.1389 7.1339-4.5657 4.2804-1.7122 9.4168-1.7122t9.4168 1.7122q4.2803 1.4268 7.1339 4.5657 2.8536 3.1389 2.8536 7.99-0.2854 3.995-1.4268 13.982-1.1414 9.9875-2.2829 22.829-1.1414 12.841-1.7121 26.824-0.5707 13.697 0.2853 25.111 0.8561 11.414 3.7097 18.834t8.5607 7.4193q3.1389 0 5.9925-1.4268 3.1389-1.7121 5.4218-4.2804 2.5682-2.5682 4.5657-5.7071 2.2828-3.1389 3.7096-5.9925 5.7072-11.414 9.4168-27.109 3.995-15.98 6.2779-33.101zm-82.183-8.8461q0.2853-1.4268 0.2853-3.1389 0-1.7122 0-3.1389-0.8561-3.4243-2.2828-7.4193-1.4268-3.995-3.7097-7.4193-1.9975-3.7096-4.8511-5.9925-2.8535-2.2829-7.1339-2.2829-8.2753 0-14.838 8.8461-6.2779 8.5607-10.273 21.687t-5.9925 28.25-1.7121 28.25q0.5707 13.126 3.1389 21.972 2.5682 8.5607 7.7046 8.5607 5.1365 0 9.7022-5.1364 4.851-5.1364 8.846-13.126 3.995-8.2754 7.4193-18.263 3.4243-9.9875 5.9925-19.69 2.8536-9.9875 4.5657-18.263 1.9975-8.5607 3.139-13.697z"/>
   </g>
  </g>
 </g>
</svg>
