<?xml version="1.0" encoding="UTF-8" standalone="no"?>
<!-- Created with Inkscape (http://www.inkscape.org/) -->

<svg
   width="100"
   height="25"
   viewBox="0 0 26.458333 6.6145835"
   version="1.1"
   id="svg8883"
   inkscape:version="1.1.2 (b8e25be8, 2022-02-05)"
   sodipodi:docname="mintea-logo.svg"
   inkscape:dataloss="true"
   xmlns:inkscape="http://www.inkscape.org/namespaces/inkscape"
   xmlns:sodipodi="http://sodipodi.sourceforge.net/DTD/sodipodi-0.dtd"
   xmlns="http://www.w3.org/2000/svg"
   xmlns:svg="http://www.w3.org/2000/svg">
  <sodipodi:namedview
     id="namedview8885"
     pagecolor="#ffffff"
     bordercolor="#666666"
     borderopacity="1.0"
     inkscape:pageshadow="2"
     inkscape:pageopacity="0.0"
     inkscape:pagecheckerboard="0"
     inkscape:document-units="mm"
     showgrid="false"
     units="px"
     inkscape:zoom="2.6285148"
     inkscape:cx="-21.304807"
     inkscape:cy="22.065693"
     inkscape:window-width="1512"
     inkscape:window-height="870"
     inkscape:window-x="0"
     inkscape:window-y="136"
     inkscape:window-maximized="1"
     inkscape:current-layer="text693-2"
     width="100px" />
  <defs
     id="defs8880" />
  <g
     inkscape:label="Capa 1"
     inkscape:groupmode="layer"
     id="layer1">
    <g
       aria-label="mintea"
       id="text693-2"
       style="font-size:285.357px;line-height:1.25;font-family:'Hello Darling';-inkscape-font-specification:'Hello Darling';fill:#008080;stroke-width:7.13392"
       transform="matrix(0.23611837,0,0,0.4372947,-27.010758,-95.782117)">
      <g
         id="g9063"
         transform="matrix(0.5,0,0,0.4774094,60.605216,114.7576)"
         style="fill:#00ff00">
        <g
           id="g5043"
           transform="matrix(0.25993544,0,0,0.11351047,-11.718565,159.50573)"
           style="fill:#00ff00">
          <path
             d="m 702.60561,708.24913 q 0.28536,-1.71214 1.42678,-2.56822 1.42679,-0.85607 2.85357,-0.85607 1.42679,0 2.56822,0.85607 1.14143,0.85608 0.85607,2.56822 -0.85607,6.84857 -2.28286,15.97999 -1.42678,8.84607 -3.70964,18.5482 -2.28285,9.70214 -5.70714,19.11892 -3.13893,9.41678 -7.98999,16.83606 -4.85107,7.41929 -11.41428,11.985 -6.27786,4.56571 -14.83857,4.56571 -12.27035,0 -19.68963,-5.13643 -7.41928,-5.13642 -11.41428,-13.41177 -3.70964,-8.56071 -5.13643,-19.11892 -1.14142,-10.84357 -1.14142,-21.97249 0.28535,-11.41428 0.85607,-21.97249 0.57071,-10.84357 0.28535,-19.11892 -0.28535,-8.56071 -2.28285,-13.69713 -1.9975,-5.13643 -6.84857,-5.13643 -5.13643,0 -9.70214,4.56571 -4.28035,4.28036 -7.98999,11.41428 -3.42429,6.84857 -6.27786,15.69464 -2.85357,8.84606 -4.85107,17.40677 -1.9975,8.56071 -3.42428,15.97999 -1.42679,7.41929 -1.9975,11.985 0,9.98749 -0.28536,18.5482 0,8.56071 0,14.83857 0,3.42428 -2.85357,5.70714 -2.85357,2.28285 -7.13392,3.70964 -4.28036,1.14143 -9.41678,1.14143 -5.13643,0.28535 -9.41678,-0.85608 -4.28036,-1.14142 -7.13393,-3.42428 -2.85357,-2.56821 -2.85357,-6.27785 0.28536,-3.995 1.14143,-13.9825 0.85607,-9.98749 1.42679,-22.82856 0.57071,-12.84106 0.57071,-26.5382 0,-13.98249 -1.42679,-25.39677 -1.42678,-11.41428 -4.85106,-18.83356 -3.13893,-7.41928 -8.84607,-7.41928 -5.9925,0 -10.84357,4.85107 -4.56571,4.56571 -8.27535,12.27035 -3.70964,7.41928 -6.56321,16.5507 -2.85357,9.13143 -4.85107,17.97749 -1.9975,8.56071 -3.42428,16.26535 -1.14143,7.41928 -1.71215,11.41428 0.28536,13.12642 0.28536,22.82856 0,9.41678 0,13.41178 0,3.13893 -2.85357,5.13643 -2.85357,1.9975 -7.13392,3.13892 -4.28036,0.85607 -9.41678,0.85607 -5.13643,0 -9.41679,-0.85607 -4.28035,-1.14142 -7.13392,-3.13892 -2.85357,-1.9975 -2.85357,-5.13643 0,-8.56071 -0.28536,-23.11392 0,-14.83856 -0.28535,-31.38927 0,-16.5507 0,-33.10141 0,-16.5507 0,-29.10641 0,-5.13643 5.99249,-7.99 6.27786,-2.85357 13.41178,-2.85357 7.41928,-0.28535 13.41178,2.28286 6.27785,2.56821 6.27785,8.56071 v 42.23284 q 1.9975,-7.13393 4.85107,-15.69464 2.85357,-8.56071 7.41929,-15.97999 4.56571,-7.41928 11.12892,-12.27035 6.56321,-5.13643 15.69463,-5.13643 11.12893,0 19.11892,4.85107 7.99,4.85107 13.12642,12.84107 5.42179,7.98999 8.56071,18.5482 3.13893,10.55821 4.56571,21.97249 2.56822,-10.55821 6.27786,-20.83106 3.70964,-10.55821 9.41678,-18.83356 5.70714,-8.27536 13.41178,-13.41178 7.70464,-5.13643 18.26285,-5.13643 11.98499,0 19.11891,5.13643 7.13393,5.13642 10.84357,13.69713 3.70964,8.56071 4.85107,19.40428 1.14143,10.55821 0.85607,21.97249 -0.28536,11.41428 -1.14143,22.25784 -0.57071,10.55821 -0.57071,19.11892 0,8.56071 1.71214,13.69714 1.71214,5.13642 6.27785,5.13642 4.85107,0 8.84607,-4.28035 4.28036,-4.56571 7.41928,-11.41428 3.42429,-6.84857 5.70714,-15.40928 2.56822,-8.56071 4.28036,-16.83606 1.71214,-8.27535 2.85357,-15.40928 1.14143,-7.41928 1.71214,-11.98499 z"
             style="fill:#00ff00"
             id="path5006" />
          <path
             d="m 723.59718,652.0338 q -8.27535,0 -14.26785,-5.70714 -5.70714,-5.9925 -5.70714,-14.26785 0,-8.27535 5.70714,-13.98249 5.9925,-5.9925 14.26785,-5.9925 8.27535,0 13.98249,5.9925 5.70714,5.70714 5.70714,13.98249 0,8.27535 -5.70714,14.26785 -5.70714,5.70714 -13.98249,5.70714 z m 60.49568,58.78354 q 0.28536,-1.42678 1.42679,-2.28286 1.42678,-0.85607 2.85357,-0.85607 1.71214,0 2.56821,0.85607 1.14143,0.85608 0.85607,2.56822 -1.71214,11.12892 -3.995,22.5432 -2.28285,11.12892 -5.42178,21.11642 -3.13893,9.98749 -7.13392,18.5482 -3.995,8.27535 -9.13143,13.69714 -8.27535,9.41678 -20.5457,9.41678 -13.41178,0 -21.97249,-6.56321 -8.27535,-6.84857 -13.12642,-17.69214 -4.85107,-11.12892 -6.56321,-24.5407 -1.71214,-13.69713 -1.9975,-27.39427 -0.28536,-13.69713 0.28536,-25.96749 0.57071,-12.5557 0.57071,-21.11641 0,-6.27786 5.9925,-9.41678 6.27785,-3.13893 13.41178,-2.85357 7.41928,0 13.41177,3.13892 6.27786,3.13893 6.27786,9.41678 -0.28536,3.995 -1.71214,13.9825 -1.14143,9.98749 -2.28286,22.82856 -1.14143,12.84106 -1.71214,26.82355 -0.57072,13.69714 0.28536,25.11142 1.14142,11.41428 3.99499,18.83356 2.85357,7.41928 8.56071,7.41928 3.13893,0 5.9925,-1.42678 2.85357,-1.71214 5.13643,-4.28036 2.56821,-2.56821 4.56571,-5.70714 2.28285,-3.13892 3.70964,-5.99249 5.70714,-11.41428 9.41678,-27.39428 3.995,-15.97999 6.27785,-32.81605 z"
             style="fill:#00ff00"
             id="path5008" />
          <path
             d="m 940.51308,712.52948 q 0.28535,-2.28285 1.71214,-3.70964 1.42678,-1.42678 2.85357,-1.42678 1.71214,0 2.56821,1.42678 0.85607,1.42679 0.57071,4.28036 -1.14142,6.84856 -2.56821,13.69713 -1.14143,6.56321 -2.56821,13.12642 -1.71214,7.99 -4.85107,18.26285 -2.85357,10.27285 -7.70464,19.40428 -4.85107,9.13142 -11.98499,15.40927 -7.13393,6.27786 -17.12142,6.27786 -12.27035,0 -19.68963,-4.85107 -7.13393,-4.85107 -11.12893,-12.84107 -3.995,-7.98999 -5.13642,-18.26284 -1.14143,-10.27285 -1.14143,-20.83106 0,-10.55821 0.57071,-20.83106 0.57072,-10.27286 0.28536,-18.26285 -0.28536,-7.99 -2.28286,-12.84107 -1.71214,-4.85107 -6.56321,-4.85107 -4.85107,0 -9.13142,3.995 -4.28036,3.995 -7.70464,10.27285 -3.42428,6.27786 -6.27785,14.26785 -2.85357,7.99 -5.13643,16.26535 -1.9975,8.27536 -3.42428,15.69464 -1.42679,7.41928 -2.28286,12.84106 0,8.27536 0,15.69464 0.28536,7.13392 0.28536,12.5557 0,4.28036 -2.85357,7.13393 -2.85357,2.56821 -7.13393,3.70964 -4.28035,1.42679 -9.41678,1.14143 -5.13642,0 -9.41678,-1.42679 -4.28035,-1.14142 -7.41928,-3.42428 -2.85357,-2.28286 -2.85357,-5.70714 0,-9.13142 0,-21.97249 0,-13.12642 -0.28536,-27.10891 0,-14.26785 0,-28.5357 0,-14.26785 0,-25.96749 0,-7.99 5.9925,-11.69964 6.27785,-3.70964 13.41178,-3.70964 7.41928,0 13.41178,3.70964 6.27785,3.42429 6.27785,9.9875 v 38.23784 q 2.56821,-9.41678 6.27785,-17.97749 3.995,-8.84607 9.41679,-15.40928 5.42178,-6.84857 12.5557,-10.84357 7.13393,-3.995 16.26535,-3.995 15.97999,0 23.68463,8.56071 7.70464,8.27536 10.27285,21.11642 2.56822,12.55571 1.71215,27.39427 -0.57072,14.83857 -1.42679,27.67963 -0.57071,12.55571 0.57071,21.11642 1.14143,8.27535 7.41929,8.27535 5.42178,0 9.98749,-5.70714 4.56571,-5.9925 7.70464,-13.98249 3.42428,-7.99 5.42178,-15.69464 2.28286,-7.98999 3.13893,-12.27035 1.42679,-6.56321 2.56821,-13.41178 1.42679,-7.13392 2.56822,-13.98249 z"
             style="fill:#00ff00"
             id="path5010" />
          <path
             d="m 1031.4795,710.24663 q 0.2854,-1.71215 1.4268,-2.56822 1.4268,-0.85607 2.8536,-0.57071 1.4268,0 2.5682,1.14143 1.1414,0.85607 0.8561,2.56821 -1.4268,10.27285 -4.2804,25.11142 -2.8536,14.83856 -8.2753,28.82105 -5.4218,13.69714 -13.9825,23.39928 -8.5607,9.70213 -21.4018,9.70213 -14.83857,0 -24.25535,-7.98999 -9.41678,-8.27536 -15.12392,-21.40178 -5.70714,-13.12642 -8.27535,-29.39177 -2.56821,-16.5507 -3.42428,-33.38677 -1.9975,-31.10391 -1.42679,-61.63711 0.28536,-30.5332 0.85607,-61.63711 h -35.66962 q -2.56822,0 -3.995,-1.14143 -1.42679,-1.14142 -1.42679,-2.56821 0,-1.71214 1.42679,-2.85357 1.42678,-1.14143 4.56571,-1.14143 h 35.38427 q 0.28536,-10.27285 0.57071,-20.5457 0,-10.27285 0,-20.5457 0,-4.56572 2.85357,-7.41929 3.13893,-3.13892 7.41928,-4.56571 4.28036,-1.42678 9.41679,-1.14143 5.13642,0 9.41678,1.42679 4.56571,1.42678 7.41928,4.56571 2.85357,2.85357 2.85357,7.13393 l -1.14143,41.0914 h 34.81351 q 2.5683,0 3.7097,1.14143 1.1414,1.14143 1.1414,2.85357 0,1.42679 -1.1414,2.56821 -1.1414,1.14143 -3.7097,1.14143 h -35.09887 q -0.57071,19.97499 -1.14142,43.08891 -0.28536,22.82856 -0.28536,45.65712 0.28536,22.5432 1.14143,43.37426 0.85607,20.83106 3.13892,36.81105 2.56822,15.98 6.27786,25.68213 3.995,9.41678 9.98749,9.41678 5.42175,0 9.98745,-4.28035 4.5658,-4.56571 7.99,-11.41428 3.7097,-6.84857 6.2779,-15.40928 2.8536,-8.84607 4.5657,-17.12142 1.9975,-8.56071 3.1389,-15.97999 1.4268,-7.41928 1.9975,-11.98499 z"
             style="fill:#00ff00"
             id="path5012" />
          <path
             d="m 1146.893,711.38805 q 0.2854,-1.71214 1.4268,-2.56821 1.4268,-1.14143 2.8536,-1.14143 1.4268,0 2.5682,0.85607 1.1414,0.85608 0.8561,2.85357 -2.2829,13.9825 -6.8486,29.67713 -4.2803,15.40928 -12.2703,28.5357 -7.99,12.84107 -19.975,21.40178 -11.985,8.56071 -29.1064,8.56071 -20.5457,0 -33.9575,-9.70214 -13.4118,-9.9875 -19.975,-24.82606 -6.2779,-14.83856 -5.7071,-32.24534 0.5707,-17.40678 8.2753,-32.24534 7.7046,-14.83857 22.2579,-24.5407 14.8385,-9.9875 36.5256,-9.9875 13.1265,0 20.8311,5.42178 7.7046,5.13643 10.2729,13.41178 2.8535,7.99 0.2853,17.40678 -2.5682,9.13142 -9.9875,17.40678 -7.4193,7.98999 -19.6896,13.41178 -12.2704,5.42178 -29.1064,5.42178 -0.2854,5.9925 0,15.12392 0.5707,8.84607 2.5682,17.40678 2.2828,8.27535 6.8486,14.5532 4.5657,5.9925 12.841,6.27786 14.2679,0 24.5407,-8.27536 10.2729,-8.27535 17.1214,-20.26034 6.8486,-12.27035 10.8436,-26.25285 3.995,-13.98249 5.7071,-25.68213 z m -45.6571,-36.24033 q -9.4168,0 -15.98,5.99249 -6.2778,5.70714 -10.2728,14.26785 -3.7097,8.56071 -5.7072,18.26285 -1.9975,9.70214 -2.5682,17.12142 14.5532,0 24.8261,-4.28036 10.2728,-4.28035 16.5507,-10.27285 6.2779,-6.27785 8.8461,-13.41178 2.5682,-7.13392 1.4267,-13.12642 -0.856,-6.27785 -5.4217,-10.27285 -4.2804,-4.28035 -11.6997,-4.28035 z"
             style="fill:#00ff00"
             id="path5014" />
          <path
             d="m 1313.3276,710.81734 q 0.2853,-1.42678 1.4268,-2.28286 1.4267,-0.85607 2.8535,-0.85607 1.7122,0 2.5682,0.85607 1.1415,0.85608 0.8561,2.56822 -1.7121,11.12892 -3.995,22.25784 -2.2828,11.12893 -5.4218,21.40178 -3.1389,9.98749 -7.1339,18.26284 -3.995,8.27536 -9.1314,13.9825 -4.2804,4.85107 -9.7022,7.13392 -5.4217,2.28286 -11.1289,2.28286 -11.6996,0 -19.4043,-5.13643 -7.7046,-5.13642 -12.5557,-13.41178 -4.851,-8.56071 -7.4192,-19.40427 -2.5683,-11.12892 -3.4243,-23.11392 -2.8536,10.84357 -6.8486,22.25785 -3.7096,11.12892 -8.8461,20.26034 -5.1364,9.13143 -11.6996,14.83857 -6.5632,5.70714 -15.1239,5.70714 -11.985,0 -21.1164,-5.70714 -8.8461,-5.9925 -14.5533,-15.40928 -5.7071,-9.70214 -8.2753,-21.97249 -2.5682,-12.55571 -1.7121,-25.39677 0.5707,-12.84107 4.5657,-25.11142 3.995,-12.27035 11.1289,-21.97249 7.4193,-9.70213 17.9775,-15.40927 10.5582,-5.9925 24.5407,-5.9925 11.985,0 18.8335,3.995 7.134,3.70964 11.4143,10.55821 v -2.85357 q 0,-4.56572 2.8536,-7.70464 2.8536,-3.13893 7.1339,-4.56571 4.2804,-1.71215 9.4168,-1.71215 5.1364,0 9.4168,1.71215 4.2803,1.42678 7.1339,4.56571 2.8536,3.13892 2.8536,7.98999 -0.2854,3.995 -1.4268,13.9825 -1.1414,9.98749 -2.2829,22.82856 -1.1414,12.84106 -1.7121,26.82355 -0.5707,13.69714 0.2853,25.11142 0.8561,11.41428 3.7097,18.83356 2.8536,7.41928 8.5607,7.41928 3.1389,0 5.9925,-1.42678 3.1389,-1.71214 5.4218,-4.28036 2.5682,-2.56821 4.5657,-5.70714 2.2828,-3.13892 3.7096,-5.99249 5.7072,-11.41428 9.4168,-27.10892 3.995,-15.97999 6.2779,-33.10141 z m -82.1828,-8.84607 q 0.2853,-1.42678 0.2853,-3.13892 0,-1.71215 0,-3.13893 -0.8561,-3.42428 -2.2828,-7.41928 -1.4268,-3.995 -3.7097,-7.41928 -1.9975,-3.70965 -4.8511,-5.9925 -2.8535,-2.28286 -7.1339,-2.28286 -8.2753,0 -14.8385,8.84607 -6.2779,8.56071 -10.2729,21.68713 -3.995,13.12642 -5.9925,28.25034 -1.9975,15.12392 -1.7121,28.25035 0.5707,13.12642 3.1389,21.97248 2.5682,8.56071 7.7046,8.56071 5.1365,0 9.7022,-5.13642 4.851,-5.13643 8.846,-13.12642 3.995,-8.27536 7.4193,-18.26285 3.4243,-9.9875 5.9925,-19.68963 2.8536,-9.9875 4.5657,-18.26285 1.9975,-8.56071 3.139,-13.69714 z"
             style="fill:#00ff00"
             id="path5016" />
        </g>
      </g>
    </g>
  </g>
</svg>
